<svg id="visual" viewBox="0 0 960 540" width="960" height="540" xmlns="http://www.w3.org/2000/svg" xmlns:xlink="http://www.w3.org/1999/xlink" version="1.1"><rect x="0" y="0" width="960" height="540" fill="#001220"></rect><defs><linearGradient id="grad1_0" x1="43.8%" y1="0%" x2="100%" y2="100%"><stop offset="14.444444444444446%" stop-color="#001220" stop-opacity="1"></stop><stop offset="85.55555555555554%" stop-color="#001220" stop-opacity="1"></stop></linearGradient></defs><defs><linearGradient id="grad2_0" x1="0%" y1="0%" x2="56.3%" y2="100%"><stop offset="14.444444444444446%" stop-color="#001220" stop-opacity="1"></stop><stop offset="85.55555555555554%" stop-color="#001220" stop-opacity="1"></stop></linearGradient></defs><g transform="translate(960, 0)"><path d="M0 486C-64.9 481.5 -129.7 477 -186 449C-242.3 421 -290 369.6 -316.1 316.1C-342.2 262.5 -346.7 206.9 -371.4 153.8C-396.1 100.8 -441.1 50.4 -486 0L0 0Z" fill="#FBAE3C"></path></g><g transform="translate(0, 540)"><path d="M0 -486C58 -471 116 -456 181 -437C246 -418 317.9 -394.9 343.7 -343.7C369.4 -292.4 348.9 -213.1 364.9 -151.2C381 -89.2 433.5 -44.6 486 0L0 0Z" fill="#FBAE3C"></path></g></svg>