<?xml version="1.0" encoding="UTF-8" standalone="no"?>
<!-- Created with Inkscape (http://www.inkscape.org/) -->
<svg xmlns:inkscape="http://www.inkscape.org/namespaces/inkscape" xmlns:rdf="http://www.w3.org/1999/02/22-rdf-syntax-ns#" xmlns="http://www.w3.org/2000/svg" xmlns:xlink="http://www.w3.org/1999/xlink" xmlns:ns1="http://sozi.baierouge.fr" xmlns:cc="http://creativecommons.org/ns#" xmlns:sodipodi="http://sodipodi.sourceforge.net/DTD/sodipodi-0.dtd" xmlns:dc="http://purl.org/dc/elements/1.1/" id="svg2" xml:space="preserve" viewBox="0 0 44.6 16.401" version="1.1" inkscape:version="0.91 r13725">
  <defs id="defs6">
    <linearGradient id="linearGradient26" y2="-34.74" gradientUnits="userSpaceOnUse" x2="-42.706" gradientTransform="matrix(-.7972 .06664 .06664 .7972 -1.6003 37.32)" y1="-34.74" x1="-50.208">
      <stop id="stop28" style="stop-color:#707070" offset="0"/>
      <stop id="stop30" style="stop-color:#262626" offset="1"/>
    </linearGradient>
    <linearGradient id="linearGradient46" y2="35.211" gradientUnits="userSpaceOnUse" x2="42.747" gradientTransform="matrix(.79984 -.01456 -.01456 -.79984 -1.6001 37.32)" y1="35.211" x1="37.246">
      <stop id="stop48" style="stop-color:#707070" offset="0"/>
      <stop id="stop50" style="stop-color:#262626" offset="1"/>
    </linearGradient>
    <linearGradient id="linearGradient66" y2="35.945" gradientUnits="userSpaceOnUse" x2="38.734" gradientTransform="matrix(.79984 -.01416 -.01416 -.79984 -1.6 37.32)" y1="35.945" x1="9.1289">
      <stop id="stop68" style="stop-color:#b0b0b0" offset="0"/>
      <stop id="stop70" style="stop-color:#4a4a4a" offset="1"/>
    </linearGradient>
    <linearGradient id="linearGradient84" y2="33.195" gradientUnits="userSpaceOnUse" x2="31.801" gradientTransform="matrix(.79984 -.01392 -.01392 -.79984 -1.6002 37.32)" y1="33.195" x1="8.8477">
      <stop id="stop86" style="stop-color:#b0b0b0" offset="0"/>
      <stop id="stop88" style="stop-color:#8c8c8c" offset="1"/>
    </linearGradient>
    <linearGradient id="linearGradient102" y2="41.889" gradientUnits="userSpaceOnUse" x2="-1.7804" gradientTransform="matrix(.6708 .43584 .43584 -.6708 -1.5999 37.32)" y1="41.889" x1="-12.931">
      <stop id="stop104" style="stop-color:#b0b0b0" offset="0"/>
      <stop id="stop106" style="stop-color:#8c8c8c" offset="1"/>
    </linearGradient>
    <linearGradient id="linearGradient120" y2="37.217" gradientUnits="userSpaceOnUse" x2="43.515" gradientTransform="matrix(.79912 -.03776 -.03776 -.79912 -1.6 37.32)" y1="37.217" x1="21.265">
      <stop id="stop122" style="stop-color:#717171" offset="0"/>
      <stop id="stop124" style="stop-color:#262626" offset="1"/>
    </linearGradient>
    <linearGradient id="linearGradient140" y2="34.967" gradientUnits="userSpaceOnUse" x2="16.75" gradientTransform="matrix(.79984 -.01424 -.01424 -.79984 -1.6002 37.32)" y1="34.967" x1="2.6978">
      <stop id="stop142" style="stop-color:#b0b0b0" offset="0"/>
      <stop id="stop144" style="stop-color:#8c8c8c" offset="1"/>
    </linearGradient>
    <linearGradient id="linearGradient158" y2="42.654" gradientUnits="userSpaceOnUse" x2="41.138" gradientTransform="matrix(.79992 -.01376 -.01376 -.79992 -1.6001 37.32)" y1="42.654" x1="9.1836">
      <stop id="stop160" style="stop-color:#707070" offset="0"/>
      <stop id="stop162" style="stop-color:#262626" offset="1"/>
    </linearGradient>
    <linearGradient id="linearGradient176" y2="41.254" gradientUnits="userSpaceOnUse" x2="15.019" gradientTransform="matrix(.79984 -.01464 -.01464 -.79984 -1.6 37.32)" y1="41.254" x1="2.6919">
      <stop id="stop178" style="stop-color:#707070" offset="0"/>
      <stop id="stop180" style="stop-color:#262626" offset="1"/>
    </linearGradient>
  </defs>
  <g id="g10" transform="matrix(1.25 0 0 -1.25 0 16.401)">
    <g id="g12">
      <path id="path14" style="fill-rule:evenodd;fill:#e5ecfc" d="m32.121 10.32v-0.039l-1.082 1.078 1.082-1.039zm-3.043 1.719c-0.051 0.027-0.105 0.043-0.156 0.043l0.277 1 0.082 0.039 1.16-1.16 0.52-0.84c0.348-0.563 0.652-0.988 0.918-1.281-0.399-0.747-0.867-1.481-1.399-2.2-0.585-0.828-1.453-1.761-2.601-2.8-0.024 0-0.039-0.012-0.039-0.04-0.078-0.054-0.16-0.121-0.238-0.203 0.05 0.082 0.117 0.161 0.199 0.243 0.027 0.054 0.066 0.105 0.121 0.16 0.051 0.105 0.117 0.199 0.199 0.281 1.758 2.48 2.691 3.879 2.801 4.199l0.117 0.52c-0.719 1.121-1.371 1.8-1.961 2.039z" inkscape:connector-curvature="0"/>
      <g id="g16">
        <g id="g18">
          <g id="g24">
            <path id="path32" style="fill-rule:evenodd;fill:url(#linearGradient26)" d="m32.48 9.922c-0.132 0.132-0.253 0.25-0.359 0.359v0.039l0.359-0.398zm3.2-4.364c-1.946-1.199-3.145-1.918-3.602-2.16-0.371-0.211-1.039-0.316-2-0.316l0.043 0.117c-0.027-0.024-0.055-0.066-0.082-0.117-0.16 0.027-0.332 0.039-0.519 0.039l-1.68 1.679c0 0.028 0.015 0.043 0.039 0.043 1.148 1.04 2.016 1.973 2.601 2.797 0.532 0.719 1 1.453 1.399 2.203 0.027-0.054 0.055-0.093 0.082-0.121 0.32-0.32 0.812-0.922 1.48-1.8 0.614-0.829 1-1.387 1.161-1.68 0.16-0.375-0.122-0.949-0.84-1.719l1.918 1.035zm-7.758-0.558v0.16c0.051 0.055 0.117 0.094 0.199 0.121-0.082-0.082-0.148-0.176-0.199-0.281z" inkscape:connector-curvature="0"/>
          </g>
        </g>
      </g>
      <path id="path34" style="fill-rule:evenodd;fill:#dbdbdb" d="m32.121 10.281c0.106-0.109 0.227-0.227 0.359-0.359 0.985-1.067 1.653-1.856 2-2.364 0.454-0.691 0.852-1.359 1.2-2l-1.918-1.039c0.718 0.774 1 1.348 0.84 1.723-0.161 0.289-0.547 0.851-1.161 1.68-0.668 0.878-1.16 1.476-1.48 1.796-0.027 0.028-0.055 0.067-0.082 0.122-0.266 0.293-0.574 0.718-0.918 1.281l-0.52 0.84-0.043 0.078 0.641-0.68 1.082-1.078zm-22.84-8.52 0.36-0.242c0.187-0.105 0.386-0.226 0.597-0.359l-1.199 0.121c-0.027 0-0.039 0.012-0.039 0.039-1.094 0.879-1.961 1.746-2.602 2.602l-0.117 0.16c-0.32 0.426-0.574 0.84-0.761 1.238l0.519-0.762c0.43-0.613 0.906-1.133 1.441-1.558 0.559-0.426 1.161-0.84 1.801-1.239zm-4.281 11v0.039h0.078l0.203 0.079 0.078-0.118-0.039-2.601c0-0.266 0.012-0.414 0.039-0.442 0.028-0.105 0.106-0.199 0.243-0.277 0.132-0.082 0.464-0.187 1-0.32 0.293-0.055 0.718-0.188 1.277-0.403 0.402-0.132 1.082-0.293 2.043-0.476 0.266-0.027 0.547-0.07 0.84-0.121-0.137-0.16-0.602-0.176-1.403-0.039l-1.359 0.117c-0.133 0.027-0.547 0.133-1.238 0.32-0.535 0.16-0.961 0.227-1.282 0.199-0.082-0.906-0.093-1.918-0.039-3.039-0.054 0.133-0.187 0.321-0.402 0.563 0 0.023-0.012 0.051-0.039 0.078-0.188 0.238-0.305 0.48-0.359 0.719-0.133 0.535-0.149 1.109-0.039 1.719 0.078 0.453 0.117 1.136 0.117 2.042 0.082 0.426 0.136 0.774 0.16 1.04l0.043 0.039 0.156 0.882c-0.023-0.027-0.051-0.054-0.078-0.082v0.082zm1.16-0.519h-0.121l-0.758 0.719 6.36 0.082c1.519-0.028 7.398 0 17.64 0.078l-0.082-0.039-0.277-1c0.051 0 0.105-0.016 0.156-0.039l-0.558-2.801-0.598-3.16-0.203-0.922c0.187 1.094 0.176 1.828-0.039 2.199-0.188 0.27-1.907 0.563-5.16 0.883-0.348 0.027-0.68 0.051-1 0.078-1.973 0.188-3.614 0.293-4.918 0.32h6.679c0.664-0.027 1.426-0.05 2.281-0.078 0.614 0 1.051 0.024 1.317 0.078 0.402 0.11 0.75 0.321 1.043 0.641 0.344 0.348 0.547 0.734 0.598 1.16l0.082 1.199h-5.641c-2.668 0.321-6.973 0.442-12.922 0.36-0.984 0.133-1.879 0.199-2.68 0.199h-0.879l-0.242 0.043h-0.078z" inkscape:connector-curvature="0"/>
      <g id="g36">
        <g id="g38">
          <g id="g44">
            <path id="path52" style="fill-rule:evenodd;fill:url(#linearGradient46)" d="m27.922 5.16 0.598 4.082 0.558 2.801c0.586-0.243 1.242-0.922 1.961-2.043l-0.117-0.52c-0.11-0.32-1.043-1.719-2.801-4.199-0.082-0.027-0.148-0.066-0.199-0.121z" inkscape:connector-curvature="0"/>
          </g>
        </g>
      </g>
      <path id="path54" style="fill-rule:evenodd;fill:#424242" d="m21.48 0.398-2.082 0.121-9.16 0.641c-0.211 0.133-0.41 0.254-0.597 0.359l-0.36 0.242c-0.48 0.321-0.828 0.586-1.043 0.797l1-0.476c0.801-0.321 1.508-0.524 2.121-0.602 0.746-0.082 3.028-0.226 6.84-0.441 3.813-0.211 6.094-0.321 6.84-0.321 0.535-0.023 1.027-0.05 1.481-0.078 0.269 0 0.535 0.051 0.8 0.16 0.266 0.133 0.758 0.52 1.481 1.161 0.371 0.558 0.613 0.945 0.719 1.16 0.187 0 0.359-0.016 0.519-0.039 0.027 0.051 0.055 0.09 0.082 0.117l-0.043-0.117c0.961 0 1.629 0.105 2 0.316 0.457 0.242 1.656 0.961 3.602 2.16l-2.961-3.117c-0.293-0.348-0.719-0.828-1.278-1.441-0.429-0.453-0.695-0.692-0.8-0.719-0.321-0.082-1.106-0.172-2.36-0.281l-0.84 0.039c-0.882 0.054-1.707 0.109-2.48 0.16l-3.481 0.199z" inkscape:connector-curvature="0"/>
      <g id="g56">
        <g id="g58">
          <g id="g64">
            <path id="path72" style="fill-rule:evenodd;fill:url(#linearGradient66)" d="m28.52 9.242-0.598-4.082v-0.16c-0.055-0.051-0.094-0.106-0.121-0.16l-2.242-0.2c0.16 0.028 0.363 0.067 0.601 0.121 0.266 0.051 0.707 0.094 1.32 0.118 0.266 0.082 0.415 0.281 0.442 0.601-0.027 0.238-0.027 0.442 0 0.602l0.598 3.16zm-17.122-1c-0.878 0.531-2.078 1.41-3.597 2.637l-1.641 1.363h0.078l0.242-0.043h0.879c0.801 0 1.696-0.066 2.68-0.199 5.949 0.082 10.254-0.039 12.922-0.36h5.641l-0.082-1.199c-0.055-0.43-0.254-0.816-0.598-1.16-0.297-0.32-0.645-0.535-1.043-0.641-0.266-0.054-0.707-0.082-1.32-0.082-0.852 0.028-1.614 0.055-2.282 0.082h-6.679c1.308-0.027 2.949-0.132 4.922-0.32l-3.2 0.039c-1.922 0.055-3.082 0.121-3.48 0.199-0.563 0.082-1.387 0.149-2.481 0.203l0.641-0.961c-0.027-0.214 0.094-0.347 0.359-0.402h0.641c0.293-0.051 0.703-0.183 1.238-0.398 0.16-0.051 0.442-0.106 0.84-0.16 0.32-0.028 0.586-0.079 0.801-0.161 0.266-0.105 0.652-0.332 1.16-0.679l1.559-0.559c0.16-0.055 0.519-0.215 1.082-0.48 0.453-0.215 0.812-0.348 1.078-0.403 0.48-0.078 1.054-0.117 1.719-0.117l-1.438-0.121c-0.535 0.055-1.187 0.176-1.961 0.359-0.32 0.082-0.652 0.176-1 0.282-2.453 0.695-4.84 1.679-7.16 2.961-0.156 0.078-0.332 0.183-0.52 0.32z" inkscape:connector-curvature="0"/>
          </g>
        </g>
      </g>
      <g id="g74">
        <g id="g76">
          <g id="g82">
            <path id="path90" style="fill-rule:evenodd;fill:url(#linearGradient84)" d="m5.281 12.879v0.082l0.758-0.719h0.121l1.641-1.359c1.519-1.227 2.719-2.11 3.597-2.641h-1.476c-0.961 0.183-1.641 0.344-2.043 0.48-0.559 0.211-0.984 0.344-1.277 0.399-0.536 0.133-0.868 0.238-1 0.32-0.137 0.078-0.215 0.172-0.243 0.281-0.027 0.024-0.039 0.172-0.039 0.438l0.039 2.601-0.078 0.118z" inkscape:connector-curvature="0"/>
          </g>
        </g>
      </g>
      <g id="g92">
        <g id="g94">
          <g id="g100">
            <path id="path108" style="fill-rule:evenodd;fill:url(#linearGradient102)" d="m20.078 4.679c-0.504 0.055-1.066 0.094-1.68 0.121-3.144 0.211-5.293 0.293-6.437 0.239-1.441-0.028-3 0.043-4.68 0.203l-2.082 0.238c-0.054 0.238-0.105 0.492-0.16 0.762 0.215-0.242 0.348-0.43 0.402-0.563-0.054 1.121-0.043 2.133 0.039 3.039 0.321 0.028 0.747-0.039 1.282-0.199 0.691-0.187 1.105-0.293 1.238-0.32l1.359-0.117c0.801-0.133 1.266-0.121 1.403 0.039-0.297 0.054-0.574 0.094-0.84 0.121h1.476c0.188-0.133 0.364-0.242 0.524-0.32 2.316-1.282 4.703-2.266 7.156-2.961 0.348-0.106 0.684-0.2 1-0.282z" inkscape:connector-curvature="0"/>
          </g>
        </g>
      </g>
      <g id="g110">
        <g id="g112">
          <g id="g118">
            <path id="path126" style="fill-rule:evenodd;fill:url(#linearGradient120)" d="m25.559 4.64c-0.399-0.082-0.614-0.121-0.637-0.121-0.535-0.051-1.016-0.078-1.442-0.078-0.668 0-1.242 0.039-1.718 0.117-0.27 0.055-0.629 0.188-1.082 0.403-0.559 0.265-0.918 0.425-1.082 0.48l-1.559 0.559c-0.508 0.347-0.894 0.574-1.16 0.679-0.215 0.082-0.481 0.133-0.801 0.161-0.398 0.054-0.68 0.105-0.84 0.16-0.531 0.215-0.945 0.347-1.238 0.398h-0.641c-0.265 0.055-0.386 0.188-0.359 0.402l-0.641 0.958c1.094-0.051 1.918-0.118 2.481-0.2 0.398-0.078 1.558-0.144 3.48-0.199l3.2-0.039c0.32-0.027 0.652-0.055 1-0.082 3.253-0.32 4.972-0.613 5.16-0.879 0.215-0.375 0.226-1.105 0.039-2.199l0.203 0.918c-0.027-0.16-0.027-0.36 0-0.598-0.027-0.32-0.176-0.523-0.442-0.601-0.613-0.028-1.054-0.067-1.32-0.121-0.238-0.051-0.441-0.09-0.601-0.118z" inkscape:connector-curvature="0"/>
          </g>
        </g>
      </g>
      <path id="path128" style="fill-rule:evenodd;fill:#f7fdff" d="m1.84 10.281c0.828 0.559 1.879 1.359 3.16 2.398 0.027 0.028 0.055 0.055 0.078 0.082l-0.156-0.882-0.043-0.039c-0.559-0.243-1.305-0.692-2.238-1.36-0.508-0.375-0.946-0.707-1.321-1l-1.32-2.359 0.602 2.519c0.371 0.16 0.703 0.332 1 0.52 0.078 0.055 0.16 0.094 0.238 0.121z" inkscape:connector-curvature="0"/>
      <g id="g130">
        <g id="g132">
          <g id="g138">
            <path id="path146" style="fill-rule:evenodd;fill:url(#linearGradient140)" d="m5.039 6.242c0.055-0.27 0.106-0.524 0.16-0.762-0.16 0.028-0.32 0.039-0.48 0.039-0.985 0.16-2.024 0.453-3.117 0.879l-0.922 0.402c-0.106 0.055-0.2 0.094-0.282 0.122l-0.398 0.199 1.32 2.359c0.375 0.293 0.813 0.625 1.321 1 0.933 0.668 1.679 1.117 2.238 1.36-0.024-0.266-0.078-0.614-0.16-1.04 0-0.906-0.039-1.585-0.117-2.039-0.11-0.613-0.094-1.187 0.039-1.718 0.054-0.243 0.171-0.485 0.359-0.723 0.027-0.027 0.039-0.055 0.039-0.078zm-0.039 6.437c-1.281-1.039-2.332-1.839-3.16-2.398 0.133 0.133 0.281 0.277 0.441 0.437 0.371 0.375 0.985 0.856 1.84 1.442l0.879 0.601v-0.082zm0.281 0.282v-0.082l-0.203-0.079 0.203 0.161z" inkscape:connector-curvature="0"/>
          </g>
        </g>
      </g>
      <g id="g148">
        <g id="g150">
          <g id="g156">
            <path id="path164" style="fill-rule:evenodd;fill:url(#linearGradient158)" d="m19.398 0.519 2.082-0.121h-0.64l-1.442 0.121zm4.082 3.922c0.426 0 0.907 0.024 1.442 0.078 0.023 0 0.238 0.039 0.64 0.121l2.239 0.2c-0.078-0.082-0.149-0.161-0.199-0.243 0.078 0.082 0.16 0.149 0.238 0.203l1.683-1.679c-0.109-0.215-0.347-0.602-0.722-1.16-0.719-0.641-1.211-1.028-1.481-1.161-0.265-0.109-0.531-0.16-0.797-0.16-0.457 0.028-0.949 0.051-1.484 0.078-0.746 0-3.023 0.11-6.84 0.321-3.812 0.215-6.094 0.359-6.84 0.441-0.613 0.078-1.32 0.281-2.121 0.602l-1 0.476c0.215-0.211 0.563-0.476 1.043-0.797-0.64 0.399-1.242 0.813-1.801 1.239-0.535 0.425-1.015 0.949-1.441 1.558l-0.519 0.762c0.187-0.398 0.441-0.812 0.761-1.238l-1.043 1.316-0.039 0.082 2.082-0.238c1.68-0.16 3.239-0.231 4.68-0.203 1.144 0.054 3.293-0.028 6.437-0.239 0.614-0.027 1.176-0.066 1.68-0.121 0.777-0.187 1.43-0.304 1.961-0.359l1.441 0.121z" inkscape:connector-curvature="0"/>
          </g>
        </g>
      </g>
      <g id="g166">
        <g id="g168">
          <g id="g174">
            <path id="path182" style="fill-rule:evenodd;fill:url(#linearGradient176)" d="m6.281 4.082 0.117-0.16c0.641-0.856 1.508-1.723 2.602-2.602-1.121 0.105-1.773 0.188-1.961 0.238-0.105 0.028-0.734 0.336-1.879 0.922-1.199 0.613-1.949 0.973-2.238 1.078-0.563 0.215-1.524 1.387-2.883 3.524 0.106-0.055 0.227-0.11 0.359-0.16 0.082-0.028 0.176-0.067 0.282-0.122l0.922-0.402c1.093-0.426 2.132-0.719 3.117-0.879 0.187-0.027 0.359-0.066 0.519-0.121l1.043-1.316z" inkscape:connector-curvature="0"/>
          </g>
        </g>
      </g>
    </g>
  </g>
<metadata><rdf:RDF><cc:Work><dc:format>image/svg+xml</dc:format><dc:type rdf:resource="http://purl.org/dc/dcmitype/StillImage"/><cc:license rdf:resource="http://creativecommons.org/licenses/publicdomain/"/><dc:publisher><cc:Agent rdf:about="http://openclipart.org/"><dc:title>Openclipart</dc:title></cc:Agent></dc:publisher></cc:Work><cc:License rdf:about="http://creativecommons.org/licenses/publicdomain/"><cc:permits rdf:resource="http://creativecommons.org/ns#Reproduction"/><cc:permits rdf:resource="http://creativecommons.org/ns#Distribution"/><cc:permits rdf:resource="http://creativecommons.org/ns#DerivativeWorks"/></cc:License></rdf:RDF></metadata></svg>
